<svg width="7" height="12" viewBox="0 0 7 12" fill="none" xmlns="http://www.w3.org/2000/svg">
<path d="M6.7278 5.99993C6.7278 6.12216 6.70488 6.24041 6.65905 6.35468C6.61322 6.46957 6.55211 6.56521 6.47572 6.6416L2.25905 10.8583C2.09099 11.0263 1.8771 11.1104 1.61738 11.1104C1.35766 11.1104 1.14377 11.0263 0.975716 10.8583C0.80766 10.6902 0.723633 10.4763 0.723633 10.2166C0.723633 9.95688 0.80766 9.74299 0.975716 9.57493L4.55072 5.99993L0.975715 2.42494C0.80766 2.25688 0.723632 2.04299 0.723632 1.78327C0.723632 1.52355 0.80766 1.30966 0.975715 1.1416C1.14377 0.973547 1.35766 0.889518 1.61738 0.889518C1.8771 0.889518 2.09099 0.973547 2.25905 1.1416L6.47572 5.35827C6.56738 5.44993 6.63216 5.54924 6.67005 5.65618C6.70855 5.76313 6.7278 5.87771 6.7278 5.99993Z" fill="#3C3C3C"/>
</svg>
