<svg width="228" height="88" viewBox="0 0 228 88" fill="none" xmlns="http://www.w3.org/2000/svg">
<path d="M211.206 45.205C212.97 43.3336 222.555 37.7128 227.133 34.3708C228.271 33.5394 228.288 31.8436 227.189 30.9625C225.931 29.9589 224.72 28.9885 223.505 28.018C222.744 27.4118 221.681 27.3887 220.897 27.965C217.68 30.3233 209.988 34.7053 206.668 37.0868C205.804 37.7062 204.616 37.6333 203.868 36.8583C194.806 27.4814 183.887 24.5998 171.611 28.7069C159.593 32.7312 153.142 41.651 151.728 54.1546C150.875 61.7098 152.794 68.6356 156.534 74.1935C157.504 75.6343 156.514 77.5686 154.777 77.5686H131.396C130.211 77.5686 129.248 76.6048 129.248 75.419V29.0315C129.248 27.8457 128.285 26.8819 127.1 26.8819H120.944C120.434 26.8819 119.948 27.074 119.55 27.3953C116.896 29.5383 108.138 34.2549 104.547 36.7655C103.687 37.3683 102.512 37.2855 101.757 36.5105C92.6946 27.1336 81.7756 24.252 69.4995 28.3591C64.2335 30.1212 59.9076 33.5725 55.3732 36.696C51.3352 39.4782 47.2674 42.2141 43.1898 44.9367C39.7475 47.2321 36.355 49.6003 32.8532 51.8062C29.5997 53.8565 26.2137 56.0724 22.6325 57.4999C21.7753 57.8411 20.8915 58.1259 19.988 58.3214C16.7973 59.007 12.3787 58.3777 10.1545 55.7378L10.0883 55.655C8.69488 53.9724 9.13508 51.2697 9.13508 49.2095V37.8221C9.13508 36.6363 10.0982 35.6725 11.2832 35.6725H39.5754C40.7604 35.6725 41.7235 34.7086 41.7235 33.5229V28.6804C41.7235 27.4946 40.7604 26.5308 39.5754 26.5308H2.14807C0.963156 26.5308 0 27.4946 0 28.6804V84.2129C0 85.3987 0.963156 86.3625 2.14807 86.3625H6.98702C8.17193 86.3625 9.13508 85.3987 9.13508 84.2129L8.95304 65.4559C10.8926 66.1349 12.9513 68.1454 18.1212 67.8572C24.0557 67.5227 29.8578 64.747 34.8854 61.7363C36.6429 60.683 43.6895 56.281 49.8425 52.1938C49.7597 52.727 49.677 53.257 49.6141 53.8035C47.1417 75.6641 67.8479 92.341 88.9181 85.498C104.107 80.5662 112.567 64.3893 108.171 48.4907C107.734 46.9141 108.062 45.9503 109.095 44.8539C110.048 43.8404 113.295 41.7305 116.797 39.4749C118.227 38.5541 120.106 39.5809 120.106 41.2834V84.5607C120.106 85.7464 121.07 86.7103 122.255 86.7103H129.242C129.242 86.7103 174.937 86.7103 174.924 86.6937C174.937 86.7103 185.492 87.6443 191.023 85.8491C206.211 80.9172 214.671 64.7404 210.276 48.8418C209.839 47.2652 210.167 46.3014 211.199 45.205H211.206ZM78.3598 41.4125C78.8993 38.3256 81.4975 36.474 84.9993 36.9013C89.0406 37.3915 92.1055 39.455 94.8162 42.4691C95.6668 43.4164 95.4848 44.9268 94.4323 45.6455C90.9371 48.0303 87.3195 49.3221 82.9836 48.2357C79.5646 47.3811 77.7839 44.7281 78.3598 41.4125ZM85.8963 76.9857C74.8117 80.4568 63.2869 74.7466 59.719 64.015C56.9122 55.5689 59.7256 45.4402 65.6501 40.6408C67.0634 39.4948 69.1288 40.5348 69.1453 42.3565C69.2049 48.6895 72.0149 53.6147 78.7107 56.3175C85.1383 58.9142 91.1953 57.808 97.0338 54.7309C98.4041 54.0089 100.032 54.9926 100.148 56.5361C100.78 65.1379 94.5746 74.263 85.8963 76.9823V76.9857ZM180.468 41.7603C181.007 38.6733 183.605 36.8218 187.107 37.2491C191.148 37.7393 194.213 39.8028 196.924 42.8169C197.775 43.7642 197.593 45.2746 196.54 45.9933C193.045 48.3781 189.427 49.6699 185.091 48.5835C181.672 47.7289 179.892 45.0758 180.468 41.7603ZM188.004 77.3334C176.919 80.8046 165.395 75.0944 161.827 64.3628C159.02 55.9167 161.833 45.788 167.758 40.9886C169.171 39.8426 171.236 40.8826 171.253 42.7043C171.313 49.0372 174.123 53.9592 180.818 56.6653C187.246 59.262 193.303 58.1558 199.142 55.0787C200.512 54.3567 202.14 55.3404 202.256 56.8839C202.888 65.4857 196.682 74.6108 188.004 77.3301V77.3334Z" fill="#4E1E0E"/>
<path d="M43.0987 8.50248C42.9861 8.35012 42.8471 8.22095 42.6849 8.11164C42.5227 8.00234 42.344 7.92285 42.1487 7.87316C41.9535 7.82348 41.7516 7.80692 41.543 7.82348C41.1657 7.8566 40.848 7.96259 40.5998 8.13152C40.3515 8.30044 40.1529 8.51905 40.0106 8.78071C39.8683 9.04237 39.7756 9.33385 39.7293 9.65513C39.6829 9.97642 39.6763 10.3076 39.7061 10.6422C39.7359 10.9635 39.8021 11.2748 39.9047 11.5696C40.0073 11.8677 40.1496 12.1294 40.3383 12.3579C40.5236 12.5864 40.7553 12.762 41.0333 12.8845C41.3114 13.0071 41.639 13.0501 42.0197 13.017C42.536 12.9707 42.9232 12.7752 43.1847 12.4341C43.4462 12.0929 43.5852 11.6623 43.6017 11.139L45.2302 10.99C45.2302 11.4735 45.1607 11.9174 45.015 12.3181C44.8694 12.7189 44.6642 13.07 44.3961 13.3681C44.128 13.6662 43.8036 13.9047 43.423 14.0836C43.0424 14.2624 42.6154 14.3717 42.1454 14.4148C41.5596 14.4678 41.0234 14.4148 40.5369 14.2525C40.0503 14.0902 39.63 13.8451 39.2758 13.5172C38.9217 13.1893 38.637 12.7918 38.4219 12.3248C38.2068 11.8578 38.0744 11.3444 38.0214 10.7879C37.9718 10.2149 38.0082 9.67501 38.1339 9.17155C38.2597 8.66809 38.4682 8.21763 38.7562 7.82348C39.0441 7.42933 39.4115 7.10804 39.8617 6.85632C40.3118 6.6079 40.8281 6.45554 41.414 6.40254C41.8343 6.3628 42.2381 6.3893 42.6254 6.47541C43.0126 6.56484 43.3634 6.71058 43.6812 6.91594C43.9989 7.12129 44.2703 7.38627 44.4954 7.71418C44.7205 8.03878 44.876 8.42299 44.9654 8.8602L43.337 9.00925C43.2906 8.81714 43.2112 8.64822 43.0953 8.49586L43.0987 8.50248Z" fill="#4E1E0E"/>
<path d="M46.2332 8.44946C46.3788 7.94932 46.6072 7.50879 46.9117 7.12789C47.2162 6.74699 47.6002 6.43895 48.0569 6.21041C48.517 5.97855 49.0399 5.84938 49.6291 5.81957C50.2248 5.78976 50.761 5.86925 51.2376 6.05473C51.7143 6.24022 52.1214 6.50851 52.4623 6.8596C52.8032 7.21069 53.0713 7.62803 53.2666 8.1083C53.4618 8.59188 53.5744 9.11853 53.6042 9.69485C53.6306 10.2546 53.5711 10.7813 53.4221 11.2748C53.2765 11.7683 53.0481 12.2022 52.7403 12.5765C52.4325 12.9507 52.0552 13.2522 51.5984 13.4774C51.1417 13.7026 50.6187 13.8318 50.0196 13.8616C49.4338 13.8914 48.8976 13.8152 48.4177 13.6331C47.9378 13.4509 47.5273 13.1892 47.1897 12.8448C46.8488 12.5003 46.5807 12.0929 46.3855 11.6159C46.1902 11.139 46.0776 10.6223 46.0512 10.0625C46.0214 9.48949 46.0843 8.95292 46.2299 8.45277L46.2332 8.44946ZM47.898 10.9171C47.9874 11.2185 48.1231 11.4868 48.2985 11.7219C48.474 11.9571 48.699 12.1426 48.9704 12.2784C49.2451 12.4109 49.5695 12.4705 49.9501 12.4506C50.3308 12.4307 50.6485 12.3413 50.9067 12.1823C51.1648 12.0233 51.37 11.818 51.5256 11.5629C51.6779 11.3112 51.7871 11.0297 51.8467 10.7216C51.9062 10.4136 51.9294 10.0989 51.9128 9.77434C51.8963 9.4365 51.8433 9.1119 51.7507 8.80055C51.658 8.48921 51.5256 8.21098 51.3502 7.9725C51.1715 7.73402 50.9464 7.54523 50.675 7.41274C50.4003 7.28025 50.0759 7.22063 49.6953 7.2405C49.3146 7.26038 48.9969 7.34981 48.7387 7.50879C48.4806 7.66778 48.2754 7.87645 48.1231 8.13149C47.9709 8.38653 47.8616 8.67469 47.8021 8.99266C47.7425 9.31063 47.7193 9.64185 47.7359 9.97639C47.7524 10.301 47.8021 10.6123 47.8947 10.9137L47.898 10.9171Z" fill="#4E1E0E"/>
<path d="M56.6588 5.83938L59.7436 11.076H59.7634L59.8892 5.91556L61.4713 5.95199L61.2859 13.6429L59.5946 13.6032L56.5198 8.37653H56.5L56.3775 13.5237L54.7954 13.4873L54.9808 5.79632L56.6588 5.83606V5.83938Z" fill="#4E1E0E"/>
<path d="M65.1918 6.29651L67.7403 11.8146H67.7602L68.3957 6.69397L69.9678 6.88939L69.0212 14.524L67.3465 14.3154L64.8078 8.81047H64.788L64.1525 13.9179L62.5803 13.7225L63.5269 6.08784L65.1918 6.29651Z" fill="#4E1E0E"/>
<path d="M77.5308 8.44277L77.2429 9.83721L73.2678 9.01578L72.9368 10.6288L76.5842 11.3807L76.3194 12.6691L72.6687 11.9173L72.2881 13.7655L76.3492 14.6035L76.0613 15.9979L70.3452 14.8188L71.8975 7.28349L77.5275 8.44608L77.5308 8.44277Z" fill="#4E1E0E"/>
<path d="M83.0713 11.6556C83.0051 11.4767 82.9058 11.3144 82.78 11.1687C82.6542 11.0197 82.5053 10.8938 82.3299 10.7944C82.1544 10.6951 81.9658 10.6222 81.7606 10.5824C81.3866 10.5129 81.0556 10.5261 80.7676 10.6189C80.4797 10.7149 80.2314 10.8673 80.0229 11.0826C79.8144 11.2946 79.6456 11.5496 79.5099 11.8477C79.3775 12.1458 79.2815 12.4572 79.2186 12.7917C79.1591 13.1097 79.1359 13.4243 79.1524 13.739C79.169 14.0536 79.2352 14.3451 79.3543 14.6167C79.4735 14.8883 79.6456 15.1202 79.8806 15.3123C80.1156 15.5077 80.4168 15.6402 80.7908 15.7097C81.2972 15.8058 81.7242 15.7263 82.0684 15.4679C82.4126 15.2129 82.6642 14.8353 82.823 14.3385L84.4316 14.6432C84.2992 15.1069 84.1105 15.5143 83.8623 15.8621C83.6141 16.2099 83.3195 16.4914 82.9819 16.7034C82.641 16.9187 82.267 17.0578 81.8499 17.1274C81.4329 17.1969 80.996 17.1837 80.5293 17.0976C79.9501 16.9883 79.4503 16.7895 79.0267 16.5014C78.603 16.2132 78.2654 15.8621 78.0139 15.4481C77.7623 15.034 77.5968 14.5737 77.5174 14.0669C77.438 13.5568 77.4512 13.0302 77.5538 12.477C77.6597 11.9139 77.8451 11.4039 78.1032 10.9534C78.3647 10.5029 78.6891 10.1254 79.073 9.82726C79.4603 9.52585 79.9038 9.32049 80.4036 9.20125C80.9033 9.08532 81.4428 9.0787 82.022 9.188C82.4391 9.26749 82.8197 9.39998 83.1672 9.59209C83.5148 9.78089 83.8127 10.0194 84.0609 10.3042C84.3091 10.5891 84.5011 10.9203 84.6269 11.2946C84.7527 11.6688 84.799 12.0796 84.7659 12.5267L83.1573 12.222C83.1639 12.0266 83.1342 11.8411 83.0646 11.6622L83.0713 11.6556Z" fill="#4E1E0E"/>
<path d="M85.4377 11.49L85.5205 10.0691L91.8091 10.4434L91.7264 11.8643L89.4261 11.7285L89.0521 17.9886L87.3641 17.8892L87.7381 11.6291L85.4377 11.49Z" fill="#4E1E0E"/>
<path d="M93.0437 16.2695L93.1232 17.9257L91.4351 18.0085L91.3557 16.349L93.0437 16.2662V16.2695Z" fill="#4E1E0E"/>
<path d="M102.133 8.44285L102.467 9.82404L98.5215 10.7813L98.9121 12.3844L102.533 11.5066L102.841 12.7852L99.2199 13.6629L99.6634 15.4945L103.691 14.5174L104.026 15.8986L98.356 17.2765L96.5422 9.80085L102.129 8.44616L102.133 8.44285Z" fill="#4E1E0E"/>
<path d="M102.526 8.30042L104.39 7.69097L106.584 9.55906L107.309 6.74037L109.07 6.16736L107.865 10.4235L111.658 13.4145L109.742 14.0405L107.319 12.03L106.518 15.0904L104.714 15.6767L106.015 11.0131L102.526 8.29711V8.30042Z" fill="#4E1E0E"/>
<path d="M113.095 4.78614C113.551 4.63378 113.962 4.57084 114.326 4.59734C114.69 4.62384 115.008 4.71327 115.282 4.86232C115.557 5.01137 115.785 5.21341 115.971 5.46183C116.156 5.71024 116.298 5.98516 116.398 6.28326C116.494 6.57473 116.543 6.87945 116.547 7.19411C116.547 7.50877 116.484 7.80687 116.358 8.09172C116.229 8.37657 116.027 8.63823 115.752 8.88003C115.478 9.12182 115.11 9.31393 114.653 9.46629L112.969 10.0294L113.839 12.646L112.237 13.1793L109.808 5.87917L113.098 4.78283L113.095 4.78614ZM113.799 8.36663C113.985 8.3037 114.157 8.23415 114.319 8.14803C114.481 8.06191 114.61 7.96254 114.716 7.83999C114.822 7.71744 114.885 7.5717 114.918 7.40278C114.948 7.23386 114.925 7.03181 114.849 6.79996C114.769 6.56811 114.67 6.39256 114.544 6.27663C114.418 6.1607 114.276 6.08452 114.121 6.04809C113.965 6.01497 113.796 6.01165 113.617 6.04146C113.439 6.07127 113.257 6.11433 113.071 6.17726L111.824 6.59129L112.552 8.78066L113.796 8.36663H113.799Z" fill="#4E1E0E"/>
<path d="M118.569 3.08362L120.227 9.1284L123.842 8.13474L124.216 9.50599L118.973 10.9468L116.938 3.52746L118.566 3.08031L118.569 3.08362Z" fill="#4E1E0E"/>
<path d="M123.991 3.99456C124.08 3.48116 124.252 3.01746 124.51 2.60012C124.768 2.18278 125.113 1.835 125.54 1.55346C125.97 1.26861 126.473 1.07981 127.052 0.980448C127.638 0.881082 128.181 0.897643 128.677 1.02351C129.17 1.15268 129.607 1.36798 129.988 1.67601C130.365 1.98405 130.683 2.36495 130.931 2.82204C131.183 3.27912 131.355 3.7892 131.451 4.35559C131.544 4.90873 131.547 5.43868 131.454 5.94545C131.365 6.45221 131.189 6.9093 130.931 7.3167C130.673 7.7241 130.329 8.06857 129.905 8.3468C129.478 8.62502 128.972 8.81382 128.383 8.91318C127.804 9.00924 127.264 8.9993 126.768 8.87344C126.271 8.74757 125.831 8.53891 125.454 8.23749C125.076 7.93608 124.762 7.5618 124.51 7.11134C124.259 6.66088 124.087 6.16074 123.994 5.6076C123.898 5.04121 123.898 4.50132 123.984 3.98793L123.991 3.99456ZM125.937 6.24355C126.063 6.53171 126.228 6.78344 126.43 6.99542C126.635 7.21071 126.88 7.36638 127.165 7.46575C127.453 7.56843 127.784 7.58499 128.158 7.52206C128.532 7.45913 128.839 7.33326 129.078 7.14447C129.316 6.95567 129.495 6.72713 129.617 6.45884C129.74 6.19055 129.813 5.89908 129.836 5.58773C129.859 5.27307 129.842 4.95841 129.789 4.64044C129.733 4.3059 129.644 3.99124 129.515 3.69315C129.389 3.39505 129.223 3.1367 129.018 2.91809C128.813 2.7028 128.568 2.54381 128.283 2.44113C127.995 2.34177 127.665 2.32189 127.291 2.38482C126.916 2.44776 126.609 2.57362 126.37 2.76242C126.132 2.95121 125.953 3.18307 125.834 3.45467C125.712 3.72627 125.639 4.02437 125.619 4.34896C125.599 4.67356 125.616 5.00147 125.669 5.336C125.722 5.65397 125.811 5.9587 125.937 6.24686V6.24355Z" fill="#4E1E0E"/>
<path d="M136.753 0.125887C137.097 0.106014 137.412 0.142448 137.693 0.238502C137.975 0.334556 138.22 0.473669 138.428 0.652528C138.637 0.8347 138.802 1.04999 138.918 1.29841C139.037 1.54682 139.103 1.81843 139.12 2.11321C139.146 2.56367 139.073 2.96114 138.905 3.30229C138.733 3.64345 138.438 3.91174 138.018 4.11047V4.13035C138.229 4.17672 138.408 4.2529 138.55 4.36551C138.696 4.47482 138.812 4.61062 138.908 4.76629C139.004 4.92196 139.077 5.09751 139.126 5.28631C139.176 5.47841 139.216 5.67052 139.239 5.86263C139.255 5.98518 139.269 6.12761 139.285 6.29322C139.302 6.45883 139.325 6.62444 139.351 6.79667C139.378 6.96891 139.418 7.12789 139.464 7.28026C139.51 7.43262 139.577 7.55848 139.663 7.66116L137.975 7.75721C137.869 7.51873 137.796 7.23057 137.753 6.89604C137.713 6.56151 137.66 6.24022 137.601 5.93219C137.518 5.53472 137.382 5.24656 137.184 5.07101C136.988 4.89547 136.677 4.81929 136.253 4.84247L134.565 4.94184L134.741 7.9427L133.053 8.03875L132.609 0.357742L136.747 0.119263L136.753 0.125887ZM136.353 3.63683C136.74 3.61364 137.025 3.51096 137.21 3.32879C137.395 3.14662 137.475 2.86177 137.452 2.47424C137.428 2.09996 137.319 1.83499 137.114 1.67931C136.912 1.52364 136.618 1.45408 136.23 1.47727L134.38 1.58326L134.506 3.74613L136.356 3.64014L136.353 3.63683Z" fill="#4E1E0E"/>
<path d="M146.683 0.225222L146.626 1.64616L142.572 1.49049L142.509 3.13665L146.233 3.27908L146.183 4.59402L142.459 4.44829L142.387 6.33293L146.527 6.49192L146.474 7.91286L140.642 7.68763L140.94 -7.62939e-06L146.686 0.22191L146.683 0.225222Z" fill="#4E1E0E"/>
<path d="M149.234 6.57802L149.065 8.2275L147.384 8.05526L147.553 6.40578L149.234 6.57802Z" fill="#4E1E0E"/>
<path d="M160.438 2.41463L160.147 3.80576L156.172 2.98102L155.837 4.59407L159.485 5.35256L159.217 6.6377L155.569 5.8792L155.185 7.7241L159.243 8.56871L158.955 9.95984L153.242 8.77076L154.805 1.2388L160.435 2.40801L160.438 2.41463Z" fill="#4E1E0E"/>
<path d="M163.771 3.34537L165.314 9.22453L165.334 9.23116L166.859 4.29928L168.372 4.7663L166.098 12.1161L164.483 11.6159L162.95 5.75003L162.931 5.7434L161.408 10.6653L159.896 10.195L162.169 2.84522L163.775 3.34205L163.771 3.34537Z" fill="#4E1E0E"/>
<path d="M172.026 12.8182C171.863 13.0766 171.652 13.2952 171.387 13.4707C171.122 13.6463 170.798 13.7489 170.42 13.7821C170.043 13.8152 169.586 13.7257 169.053 13.5071C168.756 13.3846 168.484 13.2223 168.239 13.0269C167.994 12.8314 167.799 12.5963 167.653 12.3313C167.508 12.0663 167.425 11.7682 167.405 11.437C167.385 11.1058 167.455 10.7448 167.617 10.3539L167.872 9.73453L169.285 10.3175L169.153 10.6355C169.083 10.8077 169.03 10.9733 168.997 11.129C168.964 11.2846 168.961 11.4304 168.984 11.5596C169.007 11.6887 169.067 11.808 169.156 11.9173C169.249 12.0233 169.384 12.116 169.573 12.1922C169.778 12.2783 169.954 12.3048 170.096 12.2783C170.238 12.2518 170.361 12.1889 170.457 12.0928C170.553 11.9968 170.636 11.8842 170.702 11.7517C170.768 11.6192 170.828 11.49 170.877 11.3641L172.85 6.56144L174.412 7.20401L172.41 12.0763C172.314 12.3081 172.185 12.5565 172.026 12.8149V12.8182Z" fill="#4E1E0E"/>
<path d="M175.167 10.0062C175.548 9.65179 175.968 9.38681 176.425 9.21457C176.881 9.04234 177.365 8.96947 177.878 9.00591C178.391 9.03903 178.907 9.1947 179.427 9.46961C179.953 9.74784 180.376 10.089 180.691 10.4898C181.005 10.8906 181.224 11.3311 181.34 11.8047C181.452 12.2784 181.472 12.7752 181.396 13.2919C181.32 13.8086 181.148 14.3187 180.88 14.8288C180.618 15.3256 180.3 15.7462 179.92 16.094C179.539 16.4418 179.125 16.7002 178.672 16.8691C178.219 17.038 177.739 17.1009 177.229 17.0645C176.722 17.0281 176.203 16.8724 175.677 16.5942C175.157 16.3193 174.733 15.9814 174.416 15.5839C174.094 15.1832 173.876 14.7493 173.757 14.2823C173.638 13.8152 173.615 13.325 173.691 12.8149C173.764 12.3049 173.929 11.8014 174.19 11.3079C174.459 10.7978 174.783 10.3672 175.164 10.0128L175.167 10.0062ZM175.349 12.9772C175.273 13.282 175.253 13.5801 175.286 13.8749C175.319 14.1663 175.415 14.4412 175.584 14.6963C175.753 14.9513 176.001 15.1666 176.339 15.3422C176.676 15.521 176.994 15.6038 177.298 15.5972C177.603 15.5906 177.884 15.5177 178.142 15.3786C178.401 15.2395 178.636 15.054 178.844 14.8155C179.053 14.5804 179.235 14.3187 179.384 14.0338C179.542 13.7357 179.662 13.4277 179.741 13.113C179.824 12.7984 179.847 12.4937 179.817 12.1956C179.784 11.9008 179.688 11.6259 179.523 11.3708C179.357 11.1158 179.102 10.9005 178.768 10.7249C178.434 10.5494 178.113 10.4633 177.808 10.4699C177.504 10.4765 177.222 10.5527 176.961 10.6918C176.699 10.8342 176.461 11.0264 176.246 11.2715C176.034 11.5166 175.849 11.7882 175.69 12.0863C175.541 12.3711 175.428 12.6692 175.349 12.9739V12.9772Z" fill="#4E1E0E"/>
<path d="M183.465 11.8577L185.043 12.911L184.851 16.4385L188.025 14.9049L189.591 15.9516L184.587 18.3099L182.948 20.7642L181.542 19.8236L183.203 17.3328L183.465 11.8577Z" fill="#4E1E0E"/>
</svg>
