<svg width="24" height="15" viewBox="0 0 24 15" fill="none" xmlns="http://www.w3.org/2000/svg">
<path d="M2.59028 6.53456C8.61304 6.86934 14.6683 6.49982 20.6169 5.48539C21.2811 5.37179 21.9173 5.95703 21.9832 6.59611C22.0563 7.30455 21.5367 7.84884 20.8725 7.96245C14.6975 9.01525 8.43254 9.34133 2.1778 8.99043C1.50817 8.95439 1.05123 8.1654 1.15337 7.55404C1.27398 6.83062 1.91518 6.49408 2.58977 6.52961L2.59028 6.53456Z" fill="#F9ECE1"/>
<path d="M22.4275 6.92572C22.0909 8.27226 21.1683 9.42391 20.2621 10.4437C19.356 11.4635 18.4247 12.3857 17.3767 13.1948C16.8621 13.5934 16.0039 13.4767 15.6364 12.9238C15.2689 12.3709 15.3557 11.6109 15.9074 11.1835C16.3246 10.86 16.719 10.5089 17.1074 10.1484C17.2764 9.99077 16.8796 10.3672 17.0891 10.1653C17.1434 10.1096 17.2032 10.0584 17.2576 10.0027C17.3712 9.89086 17.4848 9.779 17.593 9.66269C17.8281 9.41813 18.0632 9.17356 18.2874 8.92011C18.7185 8.44003 19.1278 7.94217 19.4933 7.40877C19.5323 7.34967 19.5757 7.28511 19.6146 7.22601C19.771 6.99458 19.4786 7.46035 19.589 7.26871C19.6575 7.15649 19.7206 7.03984 19.7837 6.92318C19.8378 6.81745 19.8915 6.70677 19.9397 6.59164C19.9638 6.53408 19.9824 6.47207 20.0065 6.41451C20.0828 6.2314 19.9086 6.7751 19.9761 6.50777C20.1362 5.87541 20.7163 5.33489 21.4125 5.48334C22.0269 5.6152 22.6023 6.24177 22.4369 6.91974L22.4275 6.92572Z" fill="#F9ECE1"/>
<path d="M19.9861 7.23275C19.9481 7.1065 19.9006 6.98623 19.8482 6.86646C19.8157 6.79471 19.7739 6.72893 19.7464 6.65666C19.7869 6.75763 19.8984 6.91636 19.7838 6.72791C19.6269 6.46872 19.4467 6.22696 19.2527 5.99664C19.2075 5.94623 19.1667 5.89036 19.1214 5.83995C19.0647 5.77571 18.8251 5.54008 19.104 5.81672C18.9867 5.69865 18.8693 5.58058 18.7525 5.46746C18.5144 5.24669 18.2675 5.03686 18.0116 4.83795C17.7558 4.63904 17.491 4.45107 17.2224 4.27351C17.1474 4.22617 16.8545 4.05613 17.195 4.2513C17.1365 4.21729 17.0774 4.17833 17.0188 4.14432C16.8852 4.06297 16.7472 3.98709 16.6097 3.91616C16.3555 3.78217 16.0969 3.65364 15.8305 3.54596C15.7104 3.49826 15.5908 3.45553 15.4713 3.41279C15.2842 3.34698 15.7852 3.49555 15.5849 3.44613C15.5234 3.43245 15.4614 3.41381 15.3999 3.40013C14.769 3.25494 14.2309 2.64957 14.3754 1.96374C14.5107 1.33393 15.1299 0.784365 15.8118 0.939304C17.1915 1.25756 18.4686 2.03702 19.5789 2.89877C20.6893 3.76053 21.8764 4.92979 22.3104 6.32197C22.5047 6.9428 22.2682 7.70822 21.6009 7.9373C21.0009 8.13941 20.1944 7.89219 19.9856 7.2278L19.9861 7.23275Z" fill="#F9ECE1"/>
</svg>
