<svg width="22" height="22" viewBox="0 0 22 22" fill="none" xmlns="http://www.w3.org/2000/svg">
<g clip-path="url(#clip0_2492_3222)">
<path d="M18.333 3.66671H15.4272L13.7497 1.83337H8.24967L6.57217 3.66671H3.66634C2.65801 3.66671 1.83301 4.49171 1.83301 5.50004V16.5C1.83301 17.5084 2.65801 18.3334 3.66634 18.3334H18.333C19.3413 18.3334 20.1663 17.5084 20.1663 16.5V5.50004C20.1663 4.49171 19.3413 3.66671 18.333 3.66671ZM18.333 16.5H3.66634V5.50004H7.37884L9.05634 3.66671H12.943L14.6205 5.50004H18.333V16.5ZM10.9997 6.41671C8.46967 6.41671 6.41634 8.47004 6.41634 11C6.41634 13.53 8.46967 15.5834 10.9997 15.5834C13.5297 15.5834 15.583 13.53 15.583 11C15.583 8.47004 13.5297 6.41671 10.9997 6.41671ZM10.9997 13.75C9.48717 13.75 8.24967 12.5125 8.24967 11C8.24967 9.48754 9.48717 8.25004 10.9997 8.25004C12.5122 8.25004 13.7497 9.48754 13.7497 11C13.7497 12.5125 12.5122 13.75 10.9997 13.75Z" fill="#12315A"/>
</g>
<defs>
<clipPath id="clip0_2492_3222">
<rect width="22" height="22" fill="white"/>
</clipPath>
</defs>
</svg>
