<svg width="14" height="13" viewBox="0 0 14 13" fill="none" xmlns="http://www.w3.org/2000/svg">
<path d="M7.125 5.84766L12.1289 0.84375C12.375 0.570312 12.7852 0.570312 13.0312 0.84375C13.3047 1.08984 13.3047 1.5 13.0312 1.74609L8.02734 6.75L13.0312 11.7539C13.3047 12.0273 13.3047 12.4375 13.0312 12.6836C12.7852 12.957 12.375 12.957 12.1289 12.6836L7.125 7.67969L2.09375 12.6836C1.84766 12.957 1.4375 12.957 1.19141 12.6836C0.917969 12.4375 0.917969 12.0273 1.19141 11.7539L6.19531 6.75L1.19141 1.74609C0.917969 1.5 0.917969 1.08984 1.19141 0.84375C1.4375 0.570312 1.84766 0.570312 2.09375 0.84375L7.125 5.84766Z" fill="#404040"/>
</svg>
