<svg width="23" height="23" viewBox="0 0 23 23" fill="none" xmlns="http://www.w3.org/2000/svg">
<g clip-path="url(#clip0_33_1034)">
<path d="M22.9878 11.7152C22.9878 10.7729 22.9096 10.0852 22.7403 9.37216H11.7291V13.6252H18.1924C18.0621 14.6822 17.3585 16.2739 15.7947 17.3435L15.7728 17.4859L19.2543 20.1215L19.4955 20.145C21.7108 18.1458 22.9878 15.2042 22.9878 11.7152Z" fill="#4285F4"/>
<path d="M11.7291 22.921C14.8956 22.921 17.5539 21.9022 19.4955 20.145L15.7947 17.3435C14.8044 18.0184 13.4752 18.4895 11.7291 18.4895C8.62773 18.4895 5.99549 16.4904 5.05717 13.7271L4.91963 13.7386L1.29948 16.4763L1.25214 16.605C3.1807 20.3487 7.14213 22.921 11.7291 22.921Z" fill="#34A853"/>
<path d="M5.05716 13.7271C4.80958 13.0141 4.6663 12.25 4.6663 11.4605C4.6663 10.671 4.80958 9.90695 5.04414 9.19387L5.03758 9.042L1.37206 6.26022L1.25214 6.31597C0.45728 7.86952 0.00119019 9.6141 0.00119019 11.4605C0.00119019 13.3069 0.45728 15.0514 1.25214 16.605L5.05716 13.7271Z" fill="#FBBC05"/>
<path d="M11.7291 4.43136C13.9313 4.43136 15.4168 5.36093 16.2638 6.13775L19.5737 2.97973C17.5409 1.13332 14.8956 0 11.7291 0C7.14214 0 3.1807 2.57222 1.25214 6.31596L5.04414 9.19385C5.99549 6.4306 8.62773 4.43136 11.7291 4.43136Z" fill="#EB4335"/>
</g>
<defs>
<clipPath id="clip0_33_1034">
<rect width="23" height="23" fill="white"/>
</clipPath>
</defs>
</svg>
