<svg width="18" height="20" viewBox="0 0 18 20" fill="none" xmlns="http://www.w3.org/2000/svg">
<path d="M17.25 0.648926H4.95504C4.5415 0.648926 4.20497 0.985451 4.20497 1.399V8.868L0.282949 11.9881C0.105477 12.1296 0 12.3464 0 12.5749V19.2501C0 19.6637 0.336525 20.0002 0.750072 20.0002H17.2491C17.6626 20.0002 17.9992 19.6637 17.9992 19.2501L18 1.39906C18 0.985515 17.6636 0.648926 17.25 0.648926ZM8.40987 18.4983H5.69418V15.8687C5.69418 15.4552 5.35766 15.1187 4.94411 15.1187C4.5649 15.1187 4.2543 15.4016 4.20493 15.7683C4.20074 15.8026 4.19404 15.8344 4.19404 15.8687V18.4983H1.50021V12.9347L4.95505 10.1873L8.40988 12.9347L8.40987 18.4983ZM16.4999 18.4983H9.91002V12.5731C9.91002 12.3438 9.80538 12.1278 9.62707 11.9863L5.70505 8.86622V2.14901H16.4999L16.4999 18.4983Z" fill="#12315A"/>
<path d="M8.82576 4.08691H9.31045C9.72484 4.08691 10.0605 4.5013 10.0605 4.83699V5.32168C10.0605 5.73607 9.72484 6.07176 9.31045 6.07176H8.82576C8.41137 6.07176 8.07568 5.65737 8.07568 5.32168V4.83699C8.07568 4.4226 8.41137 4.08691 8.82576 4.08691Z" fill="#12315A"/>
<path d="M12.8951 4.08691H13.3798C13.7942 4.08691 14.1299 4.5013 14.1299 4.83699V5.32168C14.1299 5.73607 13.7942 6.07176 13.3798 6.07176H12.8951C12.4807 6.07176 12.145 5.65737 12.145 5.32168V4.83699C12.145 4.4226 12.4807 4.08691 12.8951 4.08691Z" fill="#12315A"/>
<path d="M12.8951 7.74707H13.3798C13.7942 7.74707 14.1299 8.16145 14.1299 8.49714V8.98184C14.1299 9.39622 13.7942 9.73191 13.3798 9.73191H12.8951C12.4807 9.73191 12.145 9.31753 12.145 8.98184V8.49714C12.145 8.08276 12.4807 7.74707 12.8951 7.74707Z" fill="#12315A"/>
<path d="M8.82576 7.74707H9.31045C9.72484 7.74707 10.0605 8.16145 10.0605 8.49714V8.98184C10.0605 9.39622 9.72484 9.73191 9.31045 9.73191H8.82576C8.41137 9.73191 8.07568 9.31753 8.07568 8.98184V8.49714C8.07568 8.08276 8.41137 7.74707 8.82576 7.74707Z" fill="#12315A"/>
<path d="M12.8951 11.4097H13.3798C13.7942 11.4097 14.1299 11.8241 14.1299 12.1597V12.6444C14.1299 13.0588 13.7942 13.3945 13.3798 13.3945H12.8951C12.4807 13.3945 12.145 12.9801 12.145 12.6444V12.1597C12.145 11.7454 12.4807 11.4097 12.8951 11.4097Z" fill="#12315A"/>
</svg>
