<svg width="18" height="18" viewBox="0 0 18 18" fill="none" xmlns="http://www.w3.org/2000/svg">
<path d="M13.7208 16.975L8.175 11.3833C7.86944 11.5056 7.56007 11.5972 7.24688 11.6583C6.93368 11.7194 6.60139 11.75 6.25 11.75C4.72222 11.75 3.42361 11.2153 2.35417 10.1458C1.28472 9.07639 0.75 7.77778 0.75 6.25C0.75 5.7 0.826389 5.17674 0.979167 4.68021C1.13194 4.18368 1.34583 3.71389 1.62083 3.27083L4.96667 6.61667L6.61667 4.96667L3.27083 1.62083C3.71389 1.34583 4.18368 1.13194 4.68021 0.979167C5.17674 0.826389 5.7 0.75 6.25 0.75C7.77778 0.75 9.07639 1.28472 10.1458 2.35417C11.2153 3.42361 11.75 4.72222 11.75 6.25C11.75 6.60139 11.7194 6.93368 11.6583 7.24688C11.5972 7.56007 11.5056 7.86944 11.3833 8.175L16.975 13.7208C17.1583 13.9042 17.25 14.1257 17.25 14.3854C17.25 14.6451 17.1583 14.8667 16.975 15.05L15.05 16.975C14.8667 17.1583 14.6451 17.25 14.3854 17.25C14.1257 17.25 13.9042 17.1583 13.7208 16.975ZM14.3854 15.0271L15.0042 14.4083L9.1375 8.54167C9.4125 8.23611 9.61111 7.8809 9.73333 7.47604C9.85556 7.07118 9.91667 6.6625 9.91667 6.25C9.91667 5.33333 9.62257 4.53507 9.03438 3.85521C8.44618 3.17535 7.71667 2.76667 6.84583 2.62917L8.54167 4.325C8.725 4.50833 8.81667 4.72222 8.81667 4.96667C8.81667 5.21111 8.725 5.425 8.54167 5.60833L5.60833 8.54167C5.425 8.725 5.21111 8.81667 4.96667 8.81667C4.72222 8.81667 4.50833 8.725 4.325 8.54167L2.62917 6.84583C2.76667 7.71667 3.17535 8.44618 3.85521 9.03438C4.53507 9.62257 5.33333 9.91667 6.25 9.91667C6.64722 9.91667 7.04444 9.85556 7.44167 9.73333C7.83889 9.61111 8.19792 9.42014 8.51875 9.16042L14.3854 15.0271Z" fill="#12315A"/>
</svg>
