<svg width="22" height="23" viewBox="0 0 22 23" fill="none" xmlns="http://www.w3.org/2000/svg">
<path d="M11.0003 5.99996C12.0087 5.99996 12.8337 6.82496 12.8337 7.83329C12.8337 8.84163 12.0087 9.66663 11.0003 9.66663C9.99199 9.66663 9.16699 8.84163 9.16699 7.83329C9.16699 6.82496 9.99199 5.99996 11.0003 5.99996ZM11.0003 15.1666C13.4753 15.1666 16.317 16.3491 16.5003 17H5.50033C5.71116 16.34 8.53449 15.1666 11.0003 15.1666ZM11.0003 4.16663C8.97449 4.16663 7.33366 5.80746 7.33366 7.83329C7.33366 9.85913 8.97449 11.5 11.0003 11.5C13.0262 11.5 14.667 9.85913 14.667 7.83329C14.667 5.80746 13.0262 4.16663 11.0003 4.16663ZM11.0003 13.3333C8.55283 13.3333 3.66699 14.5616 3.66699 17V18.8333H18.3337V17C18.3337 14.5616 13.4478 13.3333 11.0003 13.3333Z" fill="#12315A"/>
</svg>
