<svg width="50" height="50" viewBox="0 0 50 50" fill="none" xmlns="http://www.w3.org/2000/svg">
<rect width="50" height="50" rx="4" fill="#DCBD7C"/>
<path d="M32.875 25.5C32.875 26.0469 32.4453 26.4375 31.9375 26.4375H25.6875V32.6875C25.6875 33.2344 25.2578 33.6641 24.75 33.6641C24.2031 33.6641 23.8125 33.2344 23.8125 32.6875V26.4375H17.5625C17.0156 26.4375 16.625 26.0469 16.625 25.5391C16.625 24.9922 17.0156 24.5625 17.5625 24.5625H23.8125V18.3125C23.8125 17.8047 24.2031 17.4141 24.75 17.4141C25.2578 17.4141 25.6875 17.8047 25.6875 18.3125V24.5625H31.9375C32.4453 24.5625 32.875 24.9922 32.875 25.5Z" fill="#1E1E1E"/>
</svg>
