<svg width="20" height="19" viewBox="0 0 20 19" fill="none" xmlns="http://www.w3.org/2000/svg">
<path d="M9.99051 0.333374C4.93051 0.333374 0.833008 4.44004 0.833008 9.50004C0.833008 14.56 4.93051 18.6667 9.99051 18.6667C15.0597 18.6667 19.1663 14.56 19.1663 9.50004C19.1663 4.44004 15.0597 0.333374 9.99051 0.333374ZM16.343 5.83337H13.6388C13.3455 4.68754 12.9238 3.58754 12.3738 2.57004C14.0605 3.14754 15.463 4.32087 16.343 5.83337ZM9.99967 2.20337C10.7605 3.30337 11.3563 4.52254 11.7505 5.83337H8.24884C8.64301 4.52254 9.23884 3.30337 9.99967 2.20337ZM2.90467 11.3334C2.75801 10.7467 2.66634 10.1325 2.66634 9.50004C2.66634 8.86754 2.75801 8.25337 2.90467 7.66671H6.00301C5.92967 8.27171 5.87467 8.87671 5.87467 9.50004C5.87467 10.1234 5.92967 10.7284 6.00301 11.3334H2.90467ZM3.65634 13.1667H6.36051C6.65384 14.3125 7.07551 15.4125 7.62551 16.43C5.93884 15.8525 4.53634 14.6884 3.65634 13.1667ZM6.36051 5.83337H3.65634C4.53634 4.31171 5.93884 3.14754 7.62551 2.57004C7.07551 3.58754 6.65384 4.68754 6.36051 5.83337ZM9.99967 16.7967C9.23884 15.6967 8.64301 14.4775 8.24884 13.1667H11.7505C11.3563 14.4775 10.7605 15.6967 9.99967 16.7967ZM12.1447 11.3334H7.85467C7.77217 10.7284 7.70801 10.1234 7.70801 9.50004C7.70801 8.87671 7.77217 8.26254 7.85467 7.66671H12.1447C12.2272 8.26254 12.2913 8.87671 12.2913 9.50004C12.2913 10.1234 12.2272 10.7284 12.1447 11.3334ZM12.3738 16.43C12.9238 15.4125 13.3455 14.3125 13.6388 13.1667H16.343C15.463 14.6792 14.0605 15.8525 12.3738 16.43ZM13.9963 11.3334C14.0697 10.7284 14.1247 10.1234 14.1247 9.50004C14.1247 8.87671 14.0697 8.27171 13.9963 7.66671H17.0947C17.2413 8.25337 17.333 8.86754 17.333 9.50004C17.333 10.1325 17.2413 10.7467 17.0947 11.3334H13.9963Z" fill="#12315A"/>
</svg>
